<?xml version="1.0" encoding="UTF-8"?>
<svg version="1.1" xmlns="http://www.w3.org/2000/svg" width="225" height="225">
<path d="M0 0 C74.25 0 148.5 0 225 0 C225 74.25 225 148.5 225 225 C150.75 225 76.5 225 0 225 C0 150.75 0 76.5 0 0 Z " fill="#646464" transform="translate(0,0)"/>
<path d="M0 0 C63.69 0 127.38 0 193 0 C190 3 190 3 187 4 C186.67 4.66 186.34 5.32 186 6 C184.546878 7.98152999 183.0667828 9.91930412 181.5 11.8125 C172.01913749 25.63875783 169.63124343 49.51927153 172.48046875 65.734375 C172.65191406 66.48203125 172.82335937 67.2296875 173 68 C173.2165625 69.670625 173.2165625 69.670625 173.4375 71.375 C175.08259324 81.97671198 179.003016 92.64327688 187 100 C187.38236816 100.53165771 187.76473633 101.06331543 188.15869141 101.61108398 C191.10533116 103.83376146 194.39657797 103.48145459 197.94921875 103.51171875 C199.10814384 103.53864555 199.10814384 103.53864555 200.29048157 103.56611633 C202.756099 103.62026104 205.22152243 103.65412731 207.6875 103.6875 C209.36005306 103.72066952 211.03258051 103.75515885 212.70507812 103.79101562 C216.8032455 103.87598949 220.90135494 103.9427802 225 104 C225 105.32 225 106.64 225 108 C150.75 108 76.5 108 0 108 C0 72.36 0 36.72 0 0 Z " fill="#454545" transform="translate(0,117)"/>
<path d="M0 0 C28.71 0 57.42 0 87 0 C84 3 84 3 81 4 C80.67 4.66 80.34 5.32 80 6 C78.546878 7.98152999 77.0667828 9.91930412 75.5 11.8125 C66.01913749 25.63875783 63.63124343 49.51927153 66.48046875 65.734375 C66.65191406 66.48203125 66.82335937 67.2296875 67 68 C67.2165625 69.670625 67.2165625 69.670625 67.4375 71.375 C69.08259324 81.97671198 73.003016 92.64327688 81 100 C81.38236816 100.53165771 81.76473633 101.06331543 82.15869141 101.61108398 C85.10533116 103.83376146 88.39657797 103.48145459 91.94921875 103.51171875 C93.10814384 103.53864555 93.10814384 103.53864555 94.29048157 103.56611633 C96.756099 103.62026104 99.22152243 103.65412731 101.6875 103.6875 C103.36005306 103.72066952 105.03258051 103.75515885 106.70507812 103.79101562 C110.8032455 103.87598949 114.90135494 103.9427802 119 104 C119 105.32 119 106.64 119 108 C44.75 108 -29.5 108 -106 108 C-106 106.68 -106 105.36 -106 104 C-54.52 103.505 -54.52 103.505 -2 103 C-2 102.34 -2 101.68 -2 101 C-2.99 101 -3.98 101 -5 101 C-5 100.34 -5 99.68 -5 99 C-5.66 99 -6.32 99 -7 99 C-7 98.34 -7 97.68 -7 97 C-7.66 96.67 -8.32 96.34 -9 96 C-9.33 95.01 -9.66 94.02 -10 93 C-10.66 92.67 -11.32 92.34 -12 92 C-21.97736181 75.08186476 -22.99109351 51.20063915 -19.28515625 32.3671875 C-17.00900666 23.63380667 -13.27053054 15.89328397 -9 8 C-8.34 8 -7.68 8 -7 8 C-7 7.34 -7 6.68 -7 6 C-6.34 6 -5.68 6 -5 6 C-5 5.34 -5 4.68 -5 4 C-4.34 4 -3.68 4 -3 4 C-3 3.34 -3 2.68 -3 2 C-2.01 2 -1.02 2 0 2 C0 1.34 0 0.68 0 0 Z " fill="#0F0F0F" transform="translate(106,117)"/>
<path d="M0 0 C28.71 0 57.42 0 87 0 C86.67 2.97 86.34 5.94 86 9 C86.03650712 16.44745147 87.23275739 23.10595645 90 30 C90.35835938 30.89332031 90.71671875 31.78664063 91.0859375 32.70703125 C91.79048443 34.45340821 92.50444653 36.19603494 93.23046875 37.93359375 C94 40 94 40 94 42 C94.66 42.33 95.32 42.66 96 43 C96.33 43.99 96.66 44.98 97 46 C97.66 46 98.32 46 99 46 C99 46.66 99 47.32 99 48 C100.32 48.66 101.64 49.32 103 50 C103 50.66 103 51.32 103 52 C104.98 52.495 104.98 52.495 107 53 C71.69 53 36.38 53 0 53 C0 35.51 0 18.02 0 0 Z " fill="#474747" transform="translate(0,0)"/>
<path d="M0 0 C0.9215538 0.00222061 1.8431076 0.00444122 2.79258728 0.00672913 C4.37601929 0.0069104 4.37601929 0.0069104 5.99143982 0.00709534 C7.66792603 0.01476929 7.66792603 0.01476929 9.37828064 0.02259827 C10.91010986 0.02410889 10.91010986 0.02410889 12.47288513 0.02565002 C16.3046429 0.03090037 20.13638472 0.04486149 23.96812439 0.05775452 C32.52749939 0.07837952 41.08687439 0.09900452 49.90562439 0.12025452 C49.90562439 17.61025452 49.90562439 35.10025452 49.90562439 53.12025452 C13.60562439 53.12025452 -22.69437561 53.12025452 -60.09437561 53.12025452 C-56.09437561 50.12025452 -56.09437561 50.12025452 -53.53187561 48.74525452 C-50.69992837 46.85728969 -49.71796427 45.0722339 -48.09437561 42.12025452 C-47.57875061 41.64587952 -47.06312561 41.17150452 -46.53187561 40.68275452 C-44.45664344 38.42706738 -43.95326804 36.04048877 -43.09437561 33.12025452 C-42.76437561 32.19212952 -42.43437561 31.26400452 -42.09437561 30.30775452 C-40.14962716 24.10886882 -38.94738922 17.92174643 -38.34046936 11.45619202 C-38.01126768 8.33138875 -37.54367255 5.22979677 -37.09437561 2.12025452 C-35.55728943 2.08267029 -35.55728943 2.08267029 -33.989151 2.04432678 C-30.20027885 1.95040968 -26.4115968 1.85015134 -22.62294006 1.74794006 C-20.98073258 1.70453155 -19.33847822 1.66286094 -17.69618225 1.62294006 C-15.34048816 1.56538012 -12.98503133 1.5016456 -10.62953186 1.43666077 C-9.89098465 1.41994827 -9.15243744 1.40323578 -8.39151001 1.38601685 C-5.18850447 1.29215579 -2.86743712 0.16464204 0 0 Z " fill="#5C5C5C" transform="translate(175.09437561035156,-0.1202545166015625)"/>
</svg>
